<svg xmlns="http://www.w3.org/2000/svg" xmlns:xlink="http://www.w3.org/1999/xlink" width="36" height="36" viewBox="0 0 36 36">
    <defs>
        <path id="amaje5jq4a" d="M0 30L126 30 126 0 0 0z"></path>
    </defs>
    <g fill="none" fill-rule="evenodd">
        <g>
            <g>
                <g>
                    <g transform="translate(-116 -2842) translate(0 2792) translate(116 50) translate(.857 2.571)">
                        <path fill="#FEFEFE" d="M102.839 6.857c-.925.003-1.701.795-1.696 1.73.006.92.776 1.694 1.692 1.699.933.005 1.727-.77 1.736-1.695.01-.938-.788-1.737-1.732-1.734"></path>
                        <mask id="8mrccmf4wb" fill="#fff">
                            <use xlink:href="#amaje5jq4a"></use>
                        </mask>
                        <path fill="#FED71C"
                              d="M5.441 12.851l14.884 11.672c.644.505 1.572.41 2.1-.214l5.628-6.643c.47-.554.483-1.363.032-1.933L19.948 5.46c-.417-.527-1.13-.717-1.754-.47L5.872 9.873c-1.244.493-1.485 2.152-.43 2.978M18.66 29.027L2.336 16.225C-1.367 13.321-.524 7.49 3.85 5.755L17.564.322c1.873-.742 4.01-.169 5.26 1.41l9.616 12.14c1.353 1.71 1.313 4.137-.095 5.8l-7.383 8.714c-1.587 1.873-4.37 2.157-6.301.642"
                              mask="url(#8mrccmf4wb)"></path>
                    </g>
                </g>
            </g>
        </g>
    </g>
</svg>
